<svg width="34" height="34" viewBox="0 0 34 34" fill="none" xmlns="http://www.w3.org/2000/svg">
<path d="M17.0013 32.5832C8.39511 32.5832 1.41797 25.606 1.41797 16.9998C1.41797 8.39364 8.39511 1.4165 17.0013 1.4165C25.6075 1.4165 32.5846 8.39364 32.5846 16.9998C32.5846 25.606 25.6075 32.5832 17.0013 32.5832Z" fill="#FAD207"/>
<path d="M3.8154 16.9998C3.8154 8.79701 10.1542 2.07939 18.2 1.46685C17.8038 1.43688 17.4053 1.4165 17.0013 1.4165C8.39511 1.4165 1.41797 8.39364 1.41797 16.9998C1.41797 25.606 8.39511 32.5832 17.0013 32.5832C17.4053 32.5832 17.8038 32.5628 18.2 32.5328C10.1542 31.9203 3.8154 25.2027 3.8154 16.9998Z" fill="#FA8C16"/>
<path d="M27 23.9857C27 24.2547 26.8888 24.5127 26.6908 24.7029C26.4929 24.8931 26.2244 25 25.9444 25H9.05556C8.77561 25 8.50712 24.8931 8.30917 24.7029C8.11121 24.5127 8 24.2547 8 23.9857V13.3258C7.99989 13.1712 8.03654 13.0187 8.10716 12.8798C8.17777 12.7409 8.28048 12.6194 8.40744 12.5245L16.8519 6.2137C17.0372 6.0752 17.2652 6 17.5 6C17.7348 6 17.9628 6.0752 18.1481 6.2137L26.5926 12.5245C26.7195 12.6194 26.8222 12.7409 26.8928 12.8798C26.9635 13.0187 27.0001 13.1712 27 13.3258V23.9857ZM24.8889 22.9715V13.8207L17.5 8.29904L10.1111 13.8207V22.9715H24.8889Z" fill="white"/>
<path fill-rule="evenodd" clip-rule="evenodd" d="M17.4984 16.4504C18.0231 16.4504 18.4484 16.0251 18.4484 15.5004C18.4484 14.9757 18.0231 14.5504 17.4984 14.5504C16.9738 14.5504 16.5484 14.9757 16.5484 15.5004C16.5484 16.0251 16.9738 16.4504 17.4984 16.4504ZM17.4984 18.3504C19.0724 18.3504 20.3484 17.0744 20.3484 15.5004C20.3484 13.9264 19.0724 12.6504 17.4984 12.6504C15.9244 12.6504 14.6484 13.9264 14.6484 15.5004C14.6484 17.0744 15.9244 18.3504 17.4984 18.3504Z" fill="white"/>
<path d="M14.6484 19.3008H20.3484V21.2008H14.6484V19.3008Z" fill="white"/>
</svg>
